<?xml version="1.0" encoding="UTF-8" standalone="no"?>
<!DOCTYPE svg PUBLIC "-//W3C//DTD SVG 1.1//EN" "http://www.w3.org/Graphics/SVG/1.1/DTD/svg11.dtd">
<svg width="100%" height="100%" viewBox="0 0 1000 1000" version="1.1" xmlns="http://www.w3.org/2000/svg" xmlns:xlink="http://www.w3.org/1999/xlink" xml:space="preserve" xmlns:serif="http://www.serif.com/" style="fill-rule:evenodd;clip-rule:evenodd;stroke-linejoin:round;stroke-miterlimit:2;">
    <g transform="matrix(2.128906,0,0,2.128906,-47,-39)">
        <path d="M512,48.851L512,463.149C512,490.11 490.11,512 463.149,512L48.851,512C21.89,512 0,490.11 0,463.149L0,48.851C0,21.89 21.89,0 48.851,0L463.149,0C490.11,0 512,21.89 512,48.851Z" style="fill:url(#_Linear1);"/>
    </g>
    <g transform="matrix(32.812114,0,0,32.812114,-8.604181,-41.399889)">
        <path d="M22.658,10.988L27.83,10.988C28.523,12.529 28.937,14.217 29.008,16L23.074,16C23.049,14.116 22.893,12.456 22.658,10.988ZM20.398,3.896C23.365,5.049 25.8,7.231 27.326,9.986L22.49,9.986C21.941,7.181 21.107,5.187 20.398,3.896ZM16.068,9.986L16.068,2.99C17.134,3.037 18.17,3.206 19.16,3.483C19.91,4.746 20.879,6.855 21.49,9.986L16.068,9.986ZM9.489,22.014C9.255,20.545 9.093,18.895 9.068,17.002L15.066,17.002L15.066,22.014L9.489,22.014ZM9.479,10.988L15.066,10.988L15.066,16L9.062,16C9.087,14.114 9.245,12.457 9.479,10.988ZM11.988,3.461C12.975,3.195 14.003,3.026 15.066,2.992L15.066,9.986L9.644,9.986C10.259,6.838 11.235,4.721 11.988,3.461ZM3.661,9.986C5.212,7.186 7.723,4.993 10.757,3.855C10.042,5.145 9.198,7.15 8.643,9.986L3.661,9.986ZM8.06,16L2,16C2.066,14.219 2.467,12.526 3.158,10.988L8.474,10.988C8.241,12.457 8.084,14.116 8.06,16ZM8.487,22.014L3.197,22.014C2.503,20.471 2.058,18.79 1.993,17.002L8.064,17.002C8.088,18.895 8.252,20.543 8.487,22.014ZM8.651,23.016C9.21,25.88 10.067,27.883 10.785,29.158C7.74,28.025 5.228,25.823 3.675,23.016L8.651,23.016ZM15.066,23.016L15.066,30.01C14.014,29.977 12.999,29.811 12.021,29.55C11.266,28.314 10.285,26.187 9.665,23.016L15.066,23.016ZM21.471,23.016C20.854,26.168 19.879,28.287 19.127,29.528C18.148,29.799 17.121,29.946 16.068,29.993L16.068,23.016L21.471,23.016ZM16.068,17.002L22.066,17.002C22.043,18.895 21.878,20.544 21.644,22.014L16.068,22.014L16.068,17.002ZM22.072,16L16.068,16L16.068,10.988L21.654,10.988C21.889,12.457 22.047,14.114 22.072,16ZM23.07,17.002L28.996,17.002C28.93,18.789 28.49,20.47 27.799,22.014L22.647,22.014C22.881,20.543 23.045,18.895 23.07,17.002ZM27.318,23.016C25.797,25.782 23.351,27.965 20.371,29.116C21.086,27.84 21.932,25.85 22.484,23.016L27.318,23.016Z" style="fill:url(#_Radial2);fill-rule:nonzero;"/>
    </g>
    <defs>
        <linearGradient id="_Linear1" x1="0" y1="0" x2="1" y2="0" gradientUnits="userSpaceOnUse" gradientTransform="matrix(362,392,-392,362,76,60)"><stop offset="0" style="stop-color:rgb(124,58,237);stop-opacity:1"/><stop offset="0.46" style="stop-color:rgb(37,99,235);stop-opacity:1"/><stop offset="1" style="stop-color:rgb(32,214,210);stop-opacity:1"/></linearGradient>
        <radialGradient id="_Radial2" cx="0" cy="0" r="1" gradientUnits="userSpaceOnUse" gradientTransform="matrix(-19.596421,20.266905,-20.266905,-19.596421,19.157686,12.873291)"><stop offset="0" style="stop-color:white;stop-opacity:1"/><stop offset="1" style="stop-color:rgb(179,179,179);stop-opacity:0"/></radialGradient>
    </defs>
</svg>
